<svg xmlns="http://www.w3.org/2000/svg" version="1.1" xmlns:xlink="http://www.w3.org/1999/xlink" xmlns:svgjs="http://svgjs.dev/svgjs" width="2000" height="343" viewBox="0 0 2000 343"><g transform="matrix(1,0,0,1,-1.2121212121213603,-0.79678335376164)"><svg viewBox="0 0 396 68" data-background-color="#ffffff" preserveAspectRatio="xMidYMid meet" height="343" width="2000" xmlns="http://www.w3.org/2000/svg" xmlns:xlink="http://www.w3.org/1999/xlink"><g id="tight-bounds" transform="matrix(1,0,0,1,0.24000000000003752,0.15796288062912822)"><svg viewBox="0 0 395.5199999999999 67.68407423874174" height="67.68407423874174" width="395.5199999999999"><g><svg viewBox="0 0 515.5603581386254 88.226197296741" height="67.68407423874174" width="395.5199999999999"><g><rect width="5.757112533759562" height="64.15870353344768" x="99.21227038559991" y="12.033746881646664" fill="#0369a1" opacity="1" stroke-width="0" stroke="transparent" fill-opacity="1" class="rect-r$-0" data-fill-palette-color="primary" rx="1%" id="r$-0" data-palette-color="#0369a1"></rect></g><g transform="matrix(1,0,0,1,120.04035813862535,12.193345646655235)"><svg viewBox="0 0 395.52 63.839506003430536" height="63.839506003430536" width="395.52"><g id="textblocktransform"><svg viewBox="0 0 395.52 63.839506003430536" height="63.839506003430536" width="395.52" id="textblock"><g><svg viewBox="0 0 395.52 63.839506003430536" height="63.839506003430536" width="395.52"><g transform="matrix(1,0,0,1,0,0)"><svg width="395.52" viewBox="5.7 -37.1 292.33 47.05" height="63.839506003430536" data-palette-color="#0369a1"><g class="wordmark-text-0" data-fill-palette-color="primary" id="text-0"><path d="M27.75-18.05Q31.2-17.3 33.08-15.08 34.95-12.85 34.95-9.35L34.95-9.35Q34.95-4.85 31.63-2.43 28.3 0 21.8 0L21.8 0 5.7 0 5.7-35 20.8-35Q26.65-35 29.88-32.65 33.1-30.3 33.1-26L33.1-26Q33.1-23.1 31.68-21.08 30.25-19.05 27.75-18.05L27.75-18.05ZM20.55-31.95L9.4-31.95 9.4-19.25 20.55-19.25Q24.8-19.25 27.1-20.88 29.4-22.5 29.4-25.6L29.4-25.6Q29.4-28.7 27.1-30.33 24.8-31.95 20.55-31.95L20.55-31.95ZM21.75-3.05Q26.45-3.05 28.85-4.65 31.25-6.25 31.25-9.65L31.25-9.65Q31.25-16.2 21.75-16.2L21.75-16.2 9.4-16.2 9.4-3.05 21.75-3.05ZM46.05-21.15Q47.3-23.8 49.77-25.15 52.25-26.5 55.9-26.5L55.9-26.5 55.9-23.05 55.05-23.1Q50.9-23.1 48.55-20.55 46.2-18 46.2-13.4L46.2-13.4 46.2 0 42.65 0 42.65-26.3 46.05-26.3 46.05-21.15ZM71.9-26.5Q77.05-26.5 79.8-23.93 82.55-21.35 82.55-16.3L82.55-16.3 82.55 0 79.15 0 79.15-4.1Q77.95-2.05 75.62-0.9 73.3 0.25 70.09 0.25L70.09 0.25Q65.7 0.25 63.1-1.85 60.5-3.95 60.5-7.4L60.5-7.4Q60.5-10.75 62.92-12.8 65.34-14.85 70.65-14.85L70.65-14.85 79-14.85 79-16.45Q79-19.85 77.09-21.63 75.2-23.4 71.55-23.4L71.55-23.4Q69.05-23.4 66.75-22.58 64.45-21.75 62.8-20.3L62.8-20.3 61.2-22.95Q63.2-24.65 66-25.58 68.8-26.5 71.9-26.5L71.9-26.5ZM70.65-2.55Q73.65-2.55 75.8-3.93 77.95-5.3 79-7.9L79-7.9 79-12.2 70.75-12.2Q64-12.2 64-7.5L64-7.5Q64-5.2 65.75-3.88 67.5-2.55 70.65-2.55L70.65-2.55ZM92.19 0L92.19-26.3 95.74-26.3 95.74 0 92.19 0ZM93.99-32.05Q92.89-32.05 92.14-32.8 91.39-33.55 91.39-34.6L91.39-34.6Q91.39-35.6 92.14-36.35 92.89-37.1 93.99-37.1L93.99-37.1Q95.09-37.1 95.84-36.38 96.59-35.65 96.59-34.65L96.59-34.65Q96.59-33.55 95.84-32.8 95.09-32.05 93.99-32.05L93.99-32.05ZM119.04-26.5Q123.99-26.5 126.92-23.63 129.84-20.75 129.84-15.25L129.84-15.25 129.84 0 126.29 0 126.29-14.9Q126.29-19 124.24-21.15 122.19-23.3 118.39-23.3L118.39-23.3Q114.14-23.3 111.67-20.78 109.19-18.25 109.19-13.8L109.19-13.8 109.19 0 105.64 0 105.64-26.3 109.04-26.3 109.04-21.45Q110.49-23.85 113.07-25.18 115.64-26.5 119.04-26.5L119.04-26.5ZM153.04-26.5Q156.74-26.5 159.74-24.83 162.74-23.15 164.44-20.1 166.14-17.05 166.14-13.15L166.14-13.15Q166.14-9.25 164.44-6.2 162.74-3.15 159.74-1.45 156.74 0.25 153.04 0.25L153.04 0.25Q149.74 0.25 147.11-1.15 144.49-2.55 142.89-5.2L142.89-5.2 142.89 0 139.49 0 139.49-37.1 143.04-37.1 143.04-21.3Q144.69-23.85 147.26-25.18 149.84-26.5 153.04-26.5L153.04-26.5ZM152.79-2.9Q155.54-2.9 157.79-4.17 160.04-5.45 161.31-7.8 162.59-10.15 162.59-13.15L162.59-13.15Q162.59-16.15 161.31-18.5 160.04-20.85 157.79-22.13 155.54-23.4 152.79-23.4L152.79-23.4Q149.99-23.4 147.76-22.13 145.54-20.85 144.26-18.5 142.99-16.15 142.99-13.15L142.99-13.15Q142.99-10.15 144.26-7.8 145.54-5.45 147.76-4.17 149.99-2.9 152.79-2.9L152.79-2.9ZM176.79-21.15Q178.04-23.8 180.51-25.15 182.99-26.5 186.64-26.5L186.64-26.5 186.64-23.05 185.79-23.1Q181.64-23.1 179.29-20.55 176.94-18 176.94-13.4L176.94-13.4 176.94 0 173.39 0 173.39-26.3 176.79-26.3 176.79-21.15ZM193.43 0L193.43-26.3 196.98-26.3 196.98 0 193.43 0ZM195.23-32.05Q194.13-32.05 193.38-32.8 192.63-33.55 192.63-34.6L192.63-34.6Q192.63-35.6 193.38-36.35 194.13-37.1 195.23-37.1L195.23-37.1Q196.33-37.1 197.08-36.38 197.83-35.65 197.83-34.65L197.83-34.65Q197.83-33.55 197.08-32.8 196.33-32.05 195.23-32.05L195.23-32.05ZM227.33-37.1L230.88-37.1 230.88 0 227.48 0 227.48-5.2Q225.88-2.55 223.26-1.15 220.63 0.25 217.33 0.25L217.33 0.25Q213.63 0.25 210.63-1.45 207.63-3.15 205.93-6.2 204.23-9.25 204.23-13.15L204.23-13.15Q204.23-17.05 205.93-20.1 207.63-23.15 210.63-24.83 213.63-26.5 217.33-26.5L217.33-26.5Q220.53-26.5 223.11-25.18 225.68-23.85 227.33-21.3L227.33-21.3 227.33-37.1ZM217.63-2.9Q220.38-2.9 222.61-4.17 224.83-5.45 226.11-7.8 227.38-10.15 227.38-13.15L227.38-13.15Q227.38-16.15 226.11-18.5 224.83-20.85 222.61-22.13 220.38-23.4 217.63-23.4L217.63-23.4Q214.83-23.4 212.61-22.13 210.38-20.85 209.11-18.5 207.83-16.15 207.83-13.15L207.83-13.15Q207.83-10.15 209.11-7.8 210.38-5.45 212.61-4.17 214.83-2.9 217.63-2.9L217.63-2.9ZM261.73-26.3L265.13-26.3 265.13-3.2Q265.13 3.5 261.85 6.73 258.58 9.95 251.98 9.95L251.98 9.95Q248.33 9.95 245.05 8.88 241.78 7.8 239.73 5.9L239.73 5.9 241.53 3.2Q243.43 4.9 246.15 5.85 248.88 6.8 251.88 6.8L251.88 6.8Q256.88 6.8 259.23 4.48 261.58 2.15 261.58-2.75L261.58-2.75 261.58-6.1Q259.93-3.6 257.25-2.3 254.58-1 251.33-1L251.33-1Q247.63-1 244.6-2.63 241.58-4.25 239.85-7.18 238.13-10.1 238.13-13.8L238.13-13.8Q238.13-17.5 239.85-20.4 241.58-23.3 244.58-24.9 247.58-26.5 251.33-26.5L251.33-26.5Q254.68-26.5 257.38-25.15 260.08-23.8 261.73-21.25L261.73-21.25 261.73-26.3ZM251.68-4.15Q254.53-4.15 256.83-5.38 259.13-6.6 260.4-8.8 261.68-11 261.68-13.8L261.68-13.8Q261.68-16.6 260.4-18.78 259.13-20.95 256.85-22.18 254.58-23.4 251.68-23.4L251.68-23.4Q248.83-23.4 246.55-22.2 244.28-21 243-18.8 241.73-16.6 241.73-13.8L241.73-13.8Q241.73-11 243-8.8 244.28-6.6 246.55-5.38 248.83-4.15 251.68-4.15L251.68-4.15ZM298.03-13.15L297.98-12.05 275.98-12.05Q276.28-7.95 279.13-5.43 281.98-2.9 286.33-2.9L286.33-2.9Q288.78-2.9 290.83-3.78 292.88-4.65 294.38-6.35L294.38-6.35 296.38-4.05Q294.63-1.95 292-0.85 289.38 0.25 286.23 0.25L286.23 0.25Q282.18 0.25 279.05-1.48 275.93-3.2 274.18-6.25 272.43-9.3 272.43-13.15L272.43-13.15Q272.43-17 274.1-20.05 275.78-23.1 278.7-24.8 281.63-26.5 285.28-26.5L285.28-26.5Q288.93-26.5 291.83-24.8 294.73-23.1 296.38-20.08 298.03-17.05 298.03-13.15L298.03-13.15ZM285.28-23.45Q281.48-23.45 278.9-21.03 276.33-18.6 275.98-14.7L275.98-14.7 294.63-14.7Q294.28-18.6 291.7-21.03 289.13-23.45 285.28-23.45L285.28-23.45Z" fill="#0369a1" data-fill-palette-color="primary"></path></g></svg></g></svg></g></svg></g></svg></g><g><svg viewBox="0 0 84.14129516633403 88.226197296741" height="88.226197296741" width="84.14129516633403"><g><svg xmlns="http://www.w3.org/2000/svg" xmlns:xlink="http://www.w3.org/1999/xlink" version="1.1" x="0" y="0" viewBox="7.428999999999986 5.360000000000001 85.14439905637249 89.27799999999999" enable-background="new 0 0 100 100" xml:space="preserve" height="88.226197296741" width="84.14129516633403" class="icon-icon-0" data-fill-palette-color="accent" id="icon-0"><path d="M62.841 30.468v-6.362c0-0.565 0.458-1.023 1.023-1.023 0.565 0 1.023 0.458 1.023 1.023v6.362c0 0.565-0.458 1.023-1.023 1.023C63.299 31.491 62.841 31.033 62.841 30.468zM92.099 58.112l-6.062 3.857c0.428 0.816 0.674 1.742 0.674 2.726 0 2.526-1.603 4.68-3.842 5.513v5.084c1.93 0.718 3.382 2.417 3.747 4.49h4.051c0.565 0 1.023 0.458 1.023 1.023s-0.458 1.023-1.023 1.023h-4.051c-0.486 2.76-2.896 4.865-5.793 4.865-1.45 0-2.777-0.53-3.805-1.403l-4.286 2.475c0.055 0.321 0.089 0.65 0.089 0.986 0 3.246-2.641 5.887-5.888 5.887-3.247 0-5.888-2.641-5.888-5.887 0-0.336 0.035-0.664 0.089-0.985l-4.383-2.53c-1.013 0.824-2.303 1.32-3.707 1.32-2.029 0-3.821-1.031-4.88-2.597l-6.087 3.874c-0.171 0.108-0.361 0.16-0.548 0.16-0.338 0-0.669-0.167-0.864-0.474-0.304-0.477-0.163-1.109 0.314-1.413l6.352-4.043c-0.11-0.448-0.174-0.914-0.174-1.396 0-2.527 1.603-4.68 3.842-5.514v-4.947c-2.24-0.834-3.842-2.987-3.842-5.513 0-3.247 2.641-5.888 5.888-5.888 1.426 0 2.735 0.51 3.755 1.357l0.992-0.573-3.548-6.012c-0.382 0.118-0.779 0.199-1.199 0.199-1.915 0-3.53-1.316-3.985-3.09h-5.916v1.555c2.239 0.834 3.841 2.988 3.841 5.514 0 3.246-2.641 5.887-5.887 5.887-1.45 0-2.777-0.529-3.804-1.401l-4.288 2.475c0.054 0.321 0.089 0.649 0.089 0.985 0 3.247-2.641 5.888-5.888 5.888-3.246 0-5.887-2.641-5.887-5.888 0-0.336 0.035-0.664 0.089-0.985l-4.383-2.53c-1.013 0.824-2.304 1.32-3.709 1.32-3.247 0-5.888-2.641-5.888-5.888 0-2.527 1.603-4.68 3.842-5.514V47.16c-2.24-0.834-3.842-2.988-3.842-5.514 0-2.897 2.105-5.307 4.865-5.793v-5.689c0-0.565 0.458-1.023 1.023-1.023s1.023 0.458 1.023 1.023v5.689c1.026 0.181 1.962 0.623 2.732 1.262l4.336-2.504c-0.054-0.321-0.089-0.648-0.089-0.985 0-3.247 2.641-5.888 5.887-5.888 3.247 0 5.888 2.641 5.888 5.888 0 0.336-0.035 0.664-0.089 0.985l4.336 2.504c1.02-0.847 2.329-1.357 3.756-1.357 3.246 0 5.887 2.641 5.887 5.888 0 2.526-1.602 4.68-3.841 5.514v1.482h5.916c0.456-1.774 2.07-3.09 3.985-3.09 0.507 0 0.988 0.104 1.437 0.273l3.406-5.36-1.135-0.655c-1.013 0.824-2.303 1.32-3.708 1.32-3.247 0-5.888-2.641-5.888-5.888 0-2.527 1.603-4.68 3.842-5.514v-4.946c-1.93-0.719-3.382-2.417-3.747-4.491h-7.065c-0.565 0-1.023-0.458-1.023-1.023 0-0.565 0.458-1.023 1.023-1.023h7.065c0.428-2.427 2.343-4.343 4.77-4.77V8.041c0-0.565 0.458-1.023 1.023-1.023s1.023 0.458 1.023 1.023v5.433c1.025 0.181 1.962 0.623 2.732 1.262l4.336-2.503c-0.054-0.321-0.089-0.649-0.089-0.985 0-3.247 2.641-5.888 5.888-5.888 3.247 0 5.888 2.641 5.888 5.888 0 0.336-0.035 0.664-0.089 0.985l4.336 2.504c1.02-0.847 2.329-1.357 3.755-1.357 2.897 0 5.307 2.105 5.793 4.865h4.051c0.565 0 1.023 0.458 1.023 1.023 0 0.565-0.458 1.023-1.023 1.023h-4.051c-0.366 2.074-1.817 3.773-3.747 4.491v5.083c2.24 0.834 3.842 2.988 3.842 5.514 0 3.246-2.641 5.887-5.888 5.887-1.45 0-2.776-0.529-3.803-1.401l-4.287 2.475c0.054 0.321 0.089 0.649 0.089 0.985 0 3.247-2.641 5.888-5.888 5.888-3.247 0-5.888-2.641-5.888-5.888 0-0.336 0.035-0.664 0.089-0.985l-1.475-0.851-3.505 5.516c0.616 0.719 1.003 1.641 1.003 2.66 0 1.11-0.446 2.114-1.163 2.855l3.569 6.048 1.572-0.907c-0.054-0.321-0.089-0.649-0.089-0.985 0-3.247 2.641-5.888 5.888-5.888 3.247 0 5.888 2.641 5.888 5.888 0 0.336-0.035 0.664-0.089 0.985l4.336 2.504c0.673-0.558 1.473-0.964 2.348-1.18v-5.868c0-0.565 0.458-1.023 1.023-1.023 0.565 0 1.023 0.458 1.023 1.023v5.727c1.271 0.138 2.418 0.685 3.316 1.502L91 56.386c0.479-0.303 1.11-0.162 1.413 0.314C92.717 57.176 92.576 57.809 92.099 58.112zM58.931 35.242c0 0.357-0.037 0.704-0.098 1.044l4.345 2.508c1.02-0.847 2.329-1.357 3.755-1.357 1.426 0 2.735 0.51 3.755 1.357l4.326-2.498c-0.047-0.3-0.079-0.605-0.079-0.918 0-2.526 1.602-4.68 3.841-5.514v-5.083c-2.239-0.834-3.841-2.988-3.841-5.514 0-0.336 0.035-0.664 0.089-0.985l-4.336-2.504c-1.02 0.847-2.329 1.358-3.756 1.358-1.426 0-2.735-0.51-3.756-1.357l-4.336 2.503c0.054 0.321 0.089 0.649 0.089 0.985 0 2.526-1.602 4.68-3.841 5.514v4.947C57.328 30.562 58.931 32.716 58.931 35.242zM70.776 43.325c0-2.119-1.723-3.842-3.842-3.842s-3.842 1.723-3.842 3.842 1.723 3.842 3.842 3.842S70.776 45.444 70.776 43.325zM80.823 31.537c-2.118 0-3.841 1.723-3.841 3.842 0 2.118 1.723 3.841 3.841 3.841 2.119 0 3.842-1.723 3.842-3.841C84.665 33.26 82.942 31.537 80.823 31.537zM76.982 19.267c0 2.119 1.723 3.842 3.841 3.842 2.119 0 3.842-1.723 3.842-3.842s-1.723-3.842-3.842-3.842C78.705 15.425 76.982 17.148 76.982 19.267zM63.091 11.248c0 2.119 1.723 3.842 3.842 3.842s3.842-1.723 3.842-3.842-1.723-3.842-3.842-3.842S63.091 9.129 63.091 11.248zM53.043 23.11c2.118 0 3.841-1.723 3.841-3.842s-1.723-3.842-3.841-3.842c-2.119 0-3.842 1.723-3.842 3.842S50.924 23.11 53.043 23.11zM56.885 35.242c0-2.119-1.723-3.842-3.841-3.842-2.119 0-3.842 1.723-3.842 3.842s1.723 3.842 3.842 3.842C55.161 39.084 56.885 37.361 56.885 35.242zM39.05 52.243V47.16c-2.24-0.834-3.842-2.988-3.842-5.514 0-0.336 0.035-0.664 0.089-0.985l-4.336-2.504c-1.02 0.847-2.329 1.358-3.756 1.358-1.426 0-2.735-0.511-3.755-1.357l-4.336 2.503c0.054 0.321 0.089 0.649 0.089 0.985 0 2.527-1.603 4.68-3.842 5.514v4.946c2.24 0.834 3.842 2.988 3.842 5.514 0 0.357-0.037 0.704-0.098 1.044l4.345 2.508c1.02-0.847 2.329-1.357 3.755-1.357 1.426 0 2.735 0.51 3.755 1.357l4.326-2.497c-0.047-0.3-0.079-0.605-0.079-0.918C35.207 55.231 36.81 53.077 39.05 52.243zM37.253 41.646c0 2.119 1.723 3.842 3.842 3.842 2.118 0 3.841-1.723 3.841-3.842s-1.723-3.842-3.841-3.842C38.977 37.804 37.253 39.527 37.253 41.646zM23.364 33.627c0 2.119 1.723 3.842 3.841 3.842 2.119 0 3.842-1.723 3.842-3.842s-1.723-3.842-3.842-3.842C25.087 29.784 23.364 31.508 23.364 33.627zM13.315 45.488c2.119 0 3.842-1.723 3.842-3.842s-1.723-3.842-3.842-3.842-3.842 1.723-3.842 3.842S11.196 45.488 13.315 45.488zM17.157 57.621c0-2.119-1.723-3.842-3.842-3.842s-3.842 1.723-3.842 3.842c0 2.119 1.723 3.842 3.842 3.842S17.157 59.74 17.157 57.621zM31.047 65.704c0-2.119-1.723-3.842-3.842-3.842-2.118 0-3.841 1.723-3.841 3.842 0 2.119 1.723 3.842 3.841 3.842C29.324 69.546 31.047 67.823 31.047 65.704zM41.096 53.915c-2.119 0-3.842 1.723-3.842 3.842 0 2.118 1.723 3.841 3.842 3.841 2.118 0 3.841-1.723 3.841-3.841C44.937 55.639 43.214 53.915 41.096 53.915zM53.043 51.732c1.14 0 2.067-0.927 2.067-2.067 0-1.14-0.927-2.067-2.067-2.067-1.14 0-2.068 0.927-2.068 2.067C50.975 50.805 51.903 51.732 53.043 51.732zM78.777 75.293v-5.084c-2.239-0.834-3.841-2.987-3.841-5.513 0-0.336 0.035-0.664 0.089-0.985l-4.336-2.504c-1.02 0.847-2.329 1.357-3.755 1.357-1.426 0-2.735-0.51-3.755-1.357l-4.337 2.504c0.054 0.321 0.089 0.649 0.089 0.985 0 2.526-1.602 4.679-3.841 5.513v4.948c2.239 0.834 3.841 2.988 3.841 5.514 0 0.357-0.037 0.704-0.098 1.044l4.345 2.508c1.02-0.847 2.329-1.357 3.755-1.357 1.427 0 2.736 0.511 3.756 1.358l4.326-2.498c-0.047-0.3-0.079-0.606-0.079-0.919C74.936 78.28 76.538 76.127 78.777 75.293zM63.091 56.676c0 2.118 1.723 3.841 3.842 3.841s3.842-1.723 3.842-3.841c0-2.119-1.723-3.842-3.842-3.842S63.091 54.557 63.091 56.676zM53.043 68.536c2.118 0 3.841-1.723 3.841-3.841 0-2.119-1.723-3.842-3.841-3.842-2.119 0-3.842 1.723-3.842 3.842C49.201 66.813 50.924 68.536 53.043 68.536zM56.885 80.67c0-2.119-1.723-3.842-3.841-3.842-2.119 0-3.842 1.723-3.842 3.842 0 2.118 1.723 3.841 3.842 3.841C55.161 84.511 56.885 82.788 56.885 80.67zM70.776 88.753c0-2.119-1.723-3.842-3.842-3.842s-3.842 1.723-3.842 3.842c0 2.118 1.723 3.841 3.842 3.841S70.776 90.871 70.776 88.753zM80.823 76.964c-2.118 0-3.841 1.723-3.841 3.841 0 2.119 1.723 3.842 3.841 3.842 2.119 0 3.842-1.723 3.842-3.842C84.665 78.688 82.942 76.964 80.823 76.964zM84.665 64.695c0-2.119-1.723-3.842-3.842-3.842-2.118 0-3.841 1.723-3.841 3.842 0 2.118 1.723 3.841 3.841 3.841C82.942 68.536 84.665 66.813 84.665 64.695zM70.002 31.491c0.565 0 1.023-0.458 1.023-1.023v-6.362c0-0.565-0.458-1.023-1.023-1.023-0.565 0-1.023 0.458-1.023 1.023v6.362C68.979 31.033 69.437 31.491 70.002 31.491zM70.002 68.51c-0.565 0-1.023 0.458-1.023 1.023v6.361c0 0.565 0.458 1.023 1.023 1.023 0.565 0 1.023-0.458 1.023-1.023v-6.361C71.025 68.968 70.568 68.51 70.002 68.51zM63.864 68.51c-0.565 0-1.023 0.458-1.023 1.023v6.361c0 0.565 0.458 1.023 1.023 1.023 0.565 0 1.023-0.458 1.023-1.023v-6.361C64.887 68.968 64.43 68.51 63.864 68.51zM30.386 45.573h-6.361c-0.565 0-1.023 0.458-1.023 1.023 0 0.565 0.458 1.023 1.023 1.023h6.361c0.565 0 1.023-0.458 1.023-1.023C31.409 46.031 30.951 45.573 30.386 45.573zM30.386 51.711h-6.361c-0.565 0-1.023 0.458-1.023 1.023 0 0.565 0.458 1.023 1.023 1.023h6.361c0.565 0 1.023-0.458 1.023-1.023C31.409 52.169 30.951 51.711 30.386 51.711z" fill="#0369a1" data-fill-palette-color="accent"></path></svg></g></svg></g></svg></g><defs></defs></svg><rect width="395.5199999999999" height="67.68407423874174" fill="none" stroke="none" visibility="hidden"></rect></g></svg></g></svg>